<?xml version="1.0" encoding="utf-8"?>
<!-- Generator: Adobe Illustrator 19.0.0, SVG Export Plug-In . SVG Version: 6.00 Build 0)  -->
<svg version="1.1" id="Capa_1" xmlns="http://www.w3.org/2000/svg" xmlns:xlink="http://www.w3.org/1999/xlink" x="0px" y="0px"
	 viewBox="0 0 105.8 45.3" style="enable-background:new 0 0 105.8 45.3;" xml:space="preserve">
<style type="text/css">
	.st0{fill:none;stroke:#2196f3;stroke-width:2;stroke-linecap:round;stroke-linejoin:round;stroke-miterlimit:10;}
	.st1{fill:none;stroke:#2196f3;stroke-width:2;stroke-miterlimit:10;}
</style>
<g id="XMLID_87_">
	<polygon id="XMLID_92_" class="st0" points="79,44.3 102.4,33.2 90.7,12.6 72.9,20.2 73.9,26.4 62.8,24.3 59.9,19.4 56.6,29.3 
		61.6,26.7 74.8,31.8 	"/>
	<path id="XMLID_91_" class="st1" d="M48.1,37.9c-1.5-3.8,0.3-8,4-9.6c1.9-0.8,3.9-0.7,5.6,0"/>
	<path id="XMLID_90_" class="st1" d="M43.9,37.7c-2.1-5.3,0.4-11.3,5.6-13.4c2.6-1.1,5.4-1,7.9,0"/>
	<path id="XMLID_89_" class="st1" d="M40.3,37.9c-2.7-6.6,0.5-14.2,7.1-16.9c3.3-1.3,6.8-1.2,9.9,0"/>
	<path id="XMLID_88_" class="st1" d="M94.7,12.9c-1,0.4-1.9,1-2.6,1.8l6.9,12.2c0.4-0.1,0.9-0.2,1.3-0.4c3.8-1.5,5.6-5.8,4-9.6
		C102.7,13.1,98.4,11.3,94.7,12.9z"/>
</g>
<g id="XMLID_84_">
	<circle id="XMLID_86_" class="st1" cx="14.5" cy="14.5" r="13.5"/>
	<line id="XMLID_135_" class="st1" x1="13" y1="15.4" x2="13" y2="7.4"/>
	<line id="XMLID_85_" class="st1" x1="13" y1="17.4" x2="23" y2="17.4"/>
</g>
</svg>
