<?xml version="1.0" encoding="utf-8"?>
<!-- Generator: Adobe Illustrator 19.0.0, SVG Export Plug-In . SVG Version: 6.00 Build 0)  -->
<svg version="1.1" id="Capa_1" xmlns="http://www.w3.org/2000/svg" xmlns:xlink="http://www.w3.org/1999/xlink" x="0px" y="0px"
	 viewBox="0 0 46.3 47" style="enable-background:new 0 0 46.3 47;" xml:space="preserve">
<style type="text/css">
	.st0{fill:none;stroke:#2196f3;stroke-width:2;stroke-linecap:round;stroke-linejoin:round;stroke-miterlimit:22.9256;}
</style>
<g id="XMLID_1167_">
	<path id="XMLID_1173_" class="st0" d="M15.7,28.5c0-0.1,0-0.1,0-0.2c0.2-2.1,2.2-3.7,4.3-3.4c0.6,0.1,1.2,0.3,1.7,0.6
		c1.4-1.6,4-2.2,5.8-2.2c0.4-1.9,0.9-3.5,1.3-4.6c-0.1,0.1-7.3-4.7-0.8-12C31.2,3.3,36.9,5,42.1,1c-1.4,4.6-0.9,7.9-1.3,10.3
		c-1.4,8-7.9,9-11.7,7.8"/>
	<path id="XMLID_98_" class="st0" d="M27.6,23.3c1.5,0.6,4.4,1.4,5,3.6c0.5-0.1,0.1-0.2,1.7,0c1.6,0.2,4.6,5,0.8,6.4"/>
	<path id="XMLID_1170_" class="st0" d="M31.2,35.9l8.6-4c5.1-3.7,6.9,1,4.6,2.1l-11.2,7.1l-4.8,3c-3.4,2.1-7.8,2.2-9.1,1.4
		C12.2,43.7,10.2,42,4,42.8"/>
	<path id="XMLID_1169_" class="st0" d="M1,30.1l7.3-3c1.9-0.8,4-0.6,4.8,0c1.3,1,2.7,2,4,2.9c5.5,4.1,6,3.1,12.5,3.5
		c1.4,0.1,2.4,2.4,0,3.3c-6.1,2.8-9.8,1.5-15.3-1.3"/>
	<path id="XMLID_1168_" class="st0" d="M30.8,15.5c0,0,0.7-6,4.5-6.7"/>
</g>
</svg>
