<?xml version="1.0" encoding="utf-8"?>
<!-- Generator: Adobe Illustrator 19.0.0, SVG Export Plug-In . SVG Version: 6.00 Build 0)  -->
<svg version="1.1" id="Capa_1" xmlns="http://www.w3.org/2000/svg" xmlns:xlink="http://www.w3.org/1999/xlink" x="0px" y="0px"
	 viewBox="0 0 40.6 53.8" style="enable-background:new 0 0 40.6 53.8;" xml:space="preserve">
<style type="text/css">
	.st0{fill:none;stroke:#2196f3;stroke-width:2;stroke-linecap:round;stroke-linejoin:round;stroke-miterlimit:22.9256;}
</style>
<g id="XMLID_93_">
	<path id="XMLID_1163_" class="st0" d="M18.7,44.4c2.6,0.4,4.8,1.8,6.1,3.8c0.7-0.2,1.5-0.3,2.3-0.3c3.6,0,5.4,2.6,5.3,4.9H2.2
		c0-0.1,0-0.2,0-0.3c0-2.8,1.9-5.1,4.9-5.1c0.9,0,1.7,0.2,2.5,0.5c1.4-1.9,3.6-3.2,6.1-3.6L18.7,44.4L18.7,44.4z"/>
	<path id="XMLID_1162_" class="st0" d="M17.3,44.1c-1.8-11.6,4.5-19.4,0.3-25.1"/>
	<path id="XMLID_1160_" class="st0" d="M17.1,40.5c-0.2-2.3-1.3-4-3.3-4.9c-1.9,1.9-5.3,4.2-8.6,0.5c-2.4-2.6-1.5-5.5-4.2-9.8
		c3.4,1.5,6,0.5,7.8,1c5.6,1.7,5.8,5.5,5,8.2"/>
	<path id="XMLID_1159_" class="st0" d="M17.8,18.8c-0.1,0.1-7.3-4.7-0.8-12C20,3.3,25.7,5,30.9,1c-1.4,4.6-0.9,7.9-1.3,10.3
		c-1.4,8-6.8,9.5-10.6,8.4"/>
	<path id="XMLID_1155_" class="st0" d="M19.9,14.1c0.2,0.7,0.4-4.6,4.1-5.7s2.8-2.1,2.8-2.1"/>
	<path id="XMLID_97_" class="st0" d="M11.7,34c0,0,0.2-2.9-2.6-4.1"/>
	<g id="XMLID_1050_">
		<path id="XMLID_1151_" class="st0" d="M19.6,34.9c0.5-3.5,4.2-4.1,8.5-2.8c1.6,0.5,3.4,1.8,6.6,2.4c-4,1.9-5.2,5-8.2,5.8
			c-4.1,1.1-7.1-1.1-7-4.6"/>
		<path id="XMLID_96_" class="st0" d="M16.9,40.1c0,0,1.9-5,6.3-4.3s4.8-0.3,4.8-0.3"/>
	</g>
	<g id="XMLID_1002_">
		<path id="XMLID_95_" class="st0" d="M9.5,21.6c-3.4,0.7-5.3-2.5-5.6-7.1c-0.1-1.6,0.5-3.8-0.1-7c3.2,3.1,6.1,3.8,7.8,6.4
			c2.4,3.5,1.8,6.4-1.5,7.5"/>
		<path id="XMLID_1005_" class="st0" d="M18.5,27c0,0-8.5-4.7-9.4-9.1C8.2,13.5,6.9,13,6.9,13"/>
	</g>
	<g id="XMLID_94_">
		<path id="XMLID_999_" class="st0" d="M33.2,23.5c-3.3-1.1-4.3-4.7-1.9-8.2c1.8-2.5,5.1-2.6,8.3-5.7c-0.6,3.2,0,5.4-0.1,7
			c-0.3,4.5-2.8,8-6.3,7.3"/>
		<path id="XMLID_943_" class="st0" d="M18.1,30.5c0,0,14.9-2.2,15.9-11.3c0.5-4.5,2.5-3.8,2.5-3.8"/>
	</g>
</g>
</svg>
