<?xml version="1.0" encoding="utf-8"?>
<!-- Generator: Adobe Illustrator 19.0.0, SVG Export Plug-In . SVG Version: 6.00 Build 0)  -->
<svg version="1.1" id="Capa_1" xmlns="http://www.w3.org/2000/svg" xmlns:xlink="http://www.w3.org/1999/xlink" x="0px" y="0px"
	 viewBox="0 0 67.4 34" style="enable-background:new 0 0 67.4 34;" xml:space="preserve">
<style type="text/css">
	.st0{fill:none;stroke:#2196f3;stroke-width:2;stroke-linecap:round;stroke-linejoin:round;stroke-miterlimit:10;}
	.st1{fill:none;stroke:#2196f3;stroke-width:2;stroke-miterlimit:10;}
</style>
<g id="XMLID_87_">
	<polygon id="XMLID_92_" class="st0" points="40.6,33 64,21.9 52.4,1.2 34.5,8.9 35.5,15.1 24.5,13 21.5,8.1 18.3,18 23.2,15.4 
		36.4,20.5 	"/>
	<path id="XMLID_91_" class="st1" d="M9.7,26.6c-1.5-3.8,0.3-8,4-9.6c1.9-0.8,3.9-0.7,5.6,0"/>
	<path id="XMLID_90_" class="st1" d="M5.5,26.4C3.4,21.2,5.9,15.2,11.1,13c2.6-1.1,5.4-1,7.9,0"/>
	<path id="XMLID_89_" class="st1" d="M2,26.6C-0.7,20,2.4,12.4,9,9.7c3.3-1.3,6.8-1.2,9.9,0"/>
	<path id="XMLID_88_" class="st1" d="M56.3,1.5c-1,0.4-1.9,1-2.6,1.8l6.9,12.2c0.4-0.1,0.9-0.2,1.3-0.4c3.8-1.5,5.6-5.8,4-9.6
		S60.1,0,56.3,1.5z"/>
</g>
</svg>
