<?xml version="1.0" encoding="utf-8"?>
<!-- Generator: Adobe Illustrator 19.0.0, SVG Export Plug-In . SVG Version: 6.00 Build 0)  -->
<svg version="1.1" id="Capa_1" xmlns="http://www.w3.org/2000/svg" xmlns:xlink="http://www.w3.org/1999/xlink" x="0px" y="0px"
	 viewBox="0 0 260.1 161.8" style="enable-background:new 0 0 260.1 161.8;" xml:space="preserve">
<style type="text/css">
	.st0{fill:none;stroke:#2196f3;stroke-width:2;stroke-linecap:round;stroke-linejoin:round;stroke-miterlimit:10;}
	.st1{fill:none;stroke:#2196f3;stroke-width:2;stroke-miterlimit:10;}
	.st2{fill:#FFFFFF;stroke:#2196f3;stroke-width:2;stroke-linecap:round;stroke-linejoin:round;stroke-miterlimit:22.9256;}
	.st3{fill:none;stroke:#2196f3;stroke-width:2;stroke-miterlimit:22.9256;}
	.st4{fill:none;stroke:#2196f3;stroke-width:2;stroke-linecap:round;stroke-linejoin:round;stroke-miterlimit:22.9256;}
	.st5{fill:#2196f3;}
</style>
<g id="XMLID_543_">
	<g id="XMLID_544_">
		<g id="XMLID_547_">
			<polyline id="XMLID_548_" class="st0" points="233.6,121.5 259.1,96.1 253.5,90.5 228,115.9 			"/>
		</g>
		<path id="XMLID_546_" class="st0" d="M231.3,118.3c-1-1-2.1-1.8-3.2-2.4l-4.5,10l10-4.5C233.1,120.3,232.3,119.3,231.3,118.3z"/>
		<path id="XMLID_545_" class="st1" d="M226.9,124.5c-0.3-0.3-0.5-0.6-0.8-0.9c-0.3-0.3-0.7-0.6-1-0.9l-1.4,3.3L226.9,124.5z"/>
	</g>
</g>
<g id="XMLID_525_">
	<g id="XMLID_541_">
		<path id="XMLID_542_" class="st2" d="M116.7,156.9l-3.1-1.1l0.8-3.3c-0.5-0.3-1-0.8-1.4-1.2l-3.1,1.2l-1.5-3l2.9-1.7
			c-0.1-0.6-0.2-1.2-0.1-1.9l-3.1-1.4l1.1-3.1l3.3,0.8c0.3-0.5,0.8-1,1.2-1.4l-1.2-3.1l3-1.5l1.7,2.9c0.6-0.1,1.2-0.2,1.9-0.1
			l1.4-3.1l3.1,1.1l-0.8,3.3c0.5,0.3,1,0.8,1.4,1.2l3.1-1.2l1.5,3l-2.9,1.7c0.1,0.6,0.2,1.2,0.1,1.9l3.1,1.4l-1.1,3.1l-3.3-0.8
			c-0.3,0.5-0.8,1-1.2,1.4l1.2,3.1l-3,1.5l-1.7-2.9c-0.6,0.1-1.2,0.2-1.9,0.1L116.7,156.9L116.7,156.9z"/>
	</g>
	<g id="XMLID_539_">
		<path id="XMLID_540_" class="st2" d="M101.9,128.6l-3.1-1.1l0.8-3.3c-0.5-0.3-1-0.8-1.4-1.2l-3.1,1.2l-1.5-3l2.9-1.7
			c-0.1-0.6-0.2-1.2-0.1-1.9l-3.1-1.4l1.1-3.1l3.3,0.8c0.3-0.5,0.8-1,1.2-1.4l-1.2-3.1l3-1.5l1.7,2.9c0.6-0.1,1.2-0.2,1.9-0.1
			l1.4-3.1l3.1,1.1L108,112c0.5,0.3,1,0.8,1.4,1.2l3.1-1.2l1.5,3l-2.9,1.7c0.1,0.6,0.2,1.2,0.1,1.9l3.1,1.4l-1.1,3.1l-3.3-0.8
			c-0.3,0.5-0.8,1-1.2,1.4l1.2,3.1l-3,1.5l-1.7-2.9c-0.6,0.1-1.2,0.2-1.9,0.1L101.9,128.6L101.9,128.6z"/>
	</g>
	<g id="XMLID_530_">
		<path id="XMLID_534_" class="st3" d="M31.7,1c-9.1,0-16.5,7.4-16.5,16.5s7.4,16.5,16.5,16.5c9.1,0,16.5-7.4,16.5-16.5
			S40.8,1,31.7,1L31.7,1z M31.7,78.9c-9.1,0-16.5,7.4-16.5,16.5c0,9.1,7.4,16.5,16.5,16.5c9.1,0,16.5-7.4,16.5-16.5
			C48.1,86.3,40.8,78.9,31.7,78.9L31.7,78.9z M85.6,127.9c-9.1,0-16.5,7.4-16.5,16.5c0,9.1,7.4,16.5,16.5,16.5
			c9.1,0,16.5-7.4,16.5-16.5C102,135.3,94.7,127.9,85.6,127.9L85.6,127.9z M139.5,103c-9.1,0-16.5,7.4-16.5,16.5
			c0,9.1,7.4,16.5,16.5,16.5c9.1,0,16.5-7.4,16.5-16.5C156,110.4,148.6,103,139.5,103L139.5,103z"/>
		<line id="XMLID_533_" class="st4" x1="30.4" y1="75.8" x2="30.6" y2="40.1"/>
		<line id="XMLID_532_" class="st4" x1="46.5" y1="108.8" x2="72.2" y2="132.3"/>
		<line id="XMLID_531_" class="st4" x1="101.8" y1="137.3" x2="121.1" y2="127.9"/>
	</g>
	<g id="XMLID_13_">
		<path id="XMLID_14_" class="st5" d="M38.6,23.6h-3.3l-1.3-3.4h-6l-1.2,3.4h-3.2l5.9-15.1h3.2L38.6,23.6z M33,17.7l-2.1-5.6l-2,5.6
			H33z"/>
	</g>
	<g id="XMLID_8_">
		<path id="XMLID_9_" class="st5" d="M25.8,87.8h6c1.2,0,2.1,0,2.7,0.1c0.6,0.1,1.1,0.3,1.6,0.6c0.5,0.3,0.8,0.7,1.2,1.3
			c0.3,0.5,0.5,1.1,0.5,1.8c0,0.7-0.2,1.4-0.6,1.9s-0.9,1-1.5,1.3c0.9,0.3,1.6,0.7,2.1,1.4c0.5,0.6,0.7,1.4,0.7,2.3
			c0,0.7-0.2,1.4-0.5,2s-0.8,1.2-1.3,1.6s-1.2,0.6-2,0.7c-0.5,0.1-1.7,0.1-3.7,0.1h-5.1V87.8z M28.8,90.3v3.5h2c1.2,0,1.9,0,2.2-0.1
			c0.5-0.1,0.9-0.2,1.2-0.5c0.3-0.3,0.4-0.7,0.4-1.2c0-0.5-0.1-0.8-0.4-1.1c-0.3-0.3-0.6-0.5-1.1-0.5c-0.3,0-1.2-0.1-2.6-0.1H28.8z
			 M28.8,96.3v4h2.8c1.1,0,1.8,0,2.1-0.1c0.5-0.1,0.8-0.3,1.1-0.6s0.4-0.7,0.4-1.3c0-0.5-0.1-0.8-0.3-1.2c-0.2-0.3-0.5-0.5-1-0.7
			c-0.4-0.1-1.3-0.2-2.7-0.2H28.8z"/>
	</g>
	<g id="XMLID_5_">
		<path id="XMLID_6_" class="st5" d="M89.3,146l3,0.9c-0.5,1.6-1.2,2.9-2.3,3.7s-2.4,1.2-4,1.2c-2,0-3.7-0.7-4.9-2.1
			c-1.3-1.4-1.9-3.2-1.9-5.6c0-2.5,0.6-4.5,1.9-5.8c1.3-1.4,3-2.1,5.1-2.1c1.8,0,3.3,0.5,4.5,1.6c0.7,0.6,1.2,1.6,1.5,2.8l-3,0.7
			c-0.2-0.8-0.6-1.4-1.1-1.9c-0.6-0.5-1.3-0.7-2.1-0.7c-1.1,0-2,0.4-2.7,1.2s-1,2.1-1,3.9c0,1.9,0.3,3.3,1,4.1
			c0.7,0.8,1.6,1.2,2.7,1.2c0.8,0,1.5-0.3,2.1-0.8C88.6,147.9,89,147.1,89.3,146z"/>
	</g>
	<g id="XMLID_1_">
		<path id="XMLID_2_" class="st5" d="M133.6,111.4h5.6c1.3,0,2.2,0.1,2.9,0.3c0.9,0.3,1.6,0.7,2.3,1.4c0.6,0.7,1.1,1.5,1.4,2.4
			c0.3,1,0.5,2.2,0.5,3.6c0,1.2-0.2,2.3-0.5,3.2c-0.4,1.1-0.9,2-1.6,2.7c-0.5,0.5-1.2,0.9-2.1,1.2c-0.7,0.2-1.6,0.3-2.7,0.3h-5.7
			V111.4z M136.7,113.9v10h2.3c0.9,0,1.5,0,1.8-0.1c0.5-0.1,0.9-0.3,1.2-0.6s0.6-0.8,0.8-1.5s0.3-1.6,0.3-2.8s-0.1-2.1-0.3-2.7
			c-0.2-0.6-0.5-1.1-0.9-1.5c-0.4-0.3-0.8-0.6-1.4-0.7c-0.4-0.1-1.3-0.1-2.5-0.1H136.7z"/>
	</g>
</g>
<line id="XMLID_524_" class="st1" x1="160.9" y1="125.7" x2="220.9" y2="125.7"/>
<g id="XMLID_459_">
	<rect id="XMLID_523_" x="1" y="32.3" class="st1" width="16.5" height="49"/>
	<line id="XMLID_522_" class="st1" x1="16.5" y1="39.3" x2="10" y2="39.3"/>
	<line id="XMLID_521_" class="st1" x1="16.5" y1="46.3" x2="13" y2="46.3"/>
	<line id="XMLID_463_" class="st1" x1="16.5" y1="53.3" x2="10" y2="53.3"/>
	<line id="XMLID_462_" class="st1" x1="16.5" y1="60.3" x2="13" y2="60.3"/>
	<line id="XMLID_461_" class="st1" x1="16.5" y1="67.3" x2="10" y2="67.3"/>
	<line id="XMLID_460_" class="st1" x1="16.5" y1="74.3" x2="13" y2="74.3"/>
</g>
</svg>
