<?xml version="1.0" encoding="utf-8"?>
<!-- Generator: Adobe Illustrator 19.0.0, SVG Export Plug-In . SVG Version: 6.00 Build 0)  -->
<svg version="1.1" id="Capa_1" xmlns="http://www.w3.org/2000/svg" xmlns:xlink="http://www.w3.org/1999/xlink" x="0px" y="0px"
	 viewBox="0 0 104.8 211.3" style="enable-background:new 0 0 104.8 211.3;" xml:space="preserve">
<style type="text/css">
	.st0{fill:none;stroke:#2196f3;stroke-width:2;stroke-linecap:round;stroke-linejoin:round;stroke-miterlimit:22.9256;}
	.st1{fill:#2196f3;}
	.st2{fill:none;stroke:#2196f3;stroke-width:2;stroke-miterlimit:10;}
</style>
<g id="XMLID_428_">
	<g id="XMLID_448_">
		<polygon id="XMLID_457_" class="st0" points="72.1,171.3 72.1,161.4 63.3,159.3 68.2,151.3 61.3,144.3 53.6,149.1 51.4,139.9 
			41.5,139.9 39.5,148.7 31.4,143.7 24.4,150.7 29.2,158.4 20,160.6 20,170.4 28.8,172.5 23.8,180.6 30.8,187.5 38.5,182.7 
			40.7,192 50.5,192 52.6,183.1 60.7,188.1 67.6,181.2 62.9,173.4 		"/>
		<path id="XMLID_456_" class="st0" d="M46,180.6c-7.9,0-14.4-6.4-14.4-14.4c0-8,6.4-14.4,14.4-14.4c7.9,0,14.4,6.4,14.4,14.4
			C60.4,174.2,54,180.6,46,180.6z"/>
	</g>
	<g id="XMLID_439_">
		<g id="XMLID_446_">
			<g id="XMLID_447_">
				<path id="XMLID_13_" class="st1" d="M76,30.8v33.5c0,3.6,2.9,6.5,6.5,6.5h11.9c4.7,0,8.5,3.8,8.5,8.5v34.5
					c0,4.7-3.8,8.5-8.5,8.5H55.7c-3.6,0-6.5,2.9-6.5,6.5v9.4h-2v-9.4c0-4.7,3.8-8.5,8.5-8.5h38.7c3.6,0,6.5-2.9,6.5-6.5V79.3
					c0-3.6-2.9-6.5-6.5-6.5H82.5c-4.7,0-8.5-3.8-8.5-8.5V30.8H76 M76,28.8h-2c-1.1,0-2,0.9-2,2v33.5c0,5.8,4.7,10.5,10.5,10.5h11.9
					c2.5,0,4.5,2,4.5,4.5v34.5c0,2.5-2,4.5-4.5,4.5H55.7c-5.8,0-10.5,4.7-10.5,10.5v9.4c0,1.1,0.9,2,2,2h2c1.1,0,2-0.9,2-2v-9.4
					c0-2.5,2-4.5,4.5-4.5h38.7c5.8,0,10.5-4.7,10.5-10.5V79.3c0-5.8-4.7-10.5-10.5-10.5H82.5c-2.5,0-4.5-2-4.5-4.5V30.8
					C78,29.7,77.1,28.8,76,28.8L76,28.8z"/>
			</g>
		</g>
		<g id="XMLID_440_">
			<polygon id="XMLID_445_" class="st0" points="71.2,29.6 75,29.6 78.9,29.6 78.9,11.3 75,11.3 71.2,11.3 			"/>
			<polygon id="XMLID_444_" class="st0" points="73.3,2.3 73.3,11 75.3,11 77.4,11 77.4,2.3 75.9,1 75.3,1 74.7,1 			"/>
			<line id="XMLID_443_" class="st0" x1="70.7" y1="14.1" x2="78.7" y2="14.1"/>
			<line id="XMLID_441_" class="st0" x1="70.7" y1="18.1" x2="78.7" y2="18.1"/>
		</g>
	</g>
	<g id="XMLID_436_">
		<path id="XMLID_438_" class="st0" d="M42.7,176.5l7.5-2l0-1.6c1.1-3,3.9-1.9,4.4-7.7c0.3-4.3-3.7-7.8-8.3-7.8s-8.6,3.5-8.3,7.8
			c0.4,6.8,4.3,4.3,4.7,9.3L42.7,176.5z"/>
		<polyline id="XMLID_437_" class="st0" points="43.5,167.6 45.4,169.4 49.5,162.1 		"/>
	</g>
	<path id="XMLID_435_" class="st2" d="M16,183.1c-5.5-5.5-9-13.2-9-21.7c0-11.1,5.9-20.8,14.6-26.2"/>
	<path id="XMLID_433_" class="st2" d="M12.6,190.1C5.4,182.9,1,173,1,162c0-14.3,7.6-26.9,19-33.9"/>
	<circle id="XMLID_432_" class="st2" cx="27.7" cy="133.4" r="3"/>
	<path id="XMLID_431_" class="st2" d="M83.3,164c2.2,7.5,1.5,15.9-2.6,23.3c-5.3,9.7-15.1,15.4-25.4,15.9"/>
	<path id="XMLID_430_" class="st2" d="M89.6,159.5c2.8,9.8,1.9,20.6-3.3,30.2c-6.9,12.6-19.6,19.9-33,20.6"/>
	<circle id="XMLID_429_" class="st2" cx="49.1" cy="201.9" r="3"/>
</g>
</svg>
