<?xml version="1.0" encoding="utf-8"?>
<!-- Generator: Adobe Illustrator 19.0.0, SVG Export Plug-In . SVG Version: 6.00 Build 0)  -->
<svg version="1.1" id="Capa_1" xmlns="http://www.w3.org/2000/svg" xmlns:xlink="http://www.w3.org/1999/xlink" x="0px" y="0px"
	 viewBox="0 0 160.7 107.2" style="enable-background:new 0 0 160.7 107.2;" xml:space="preserve">
<style type="text/css">
	.st0{fill:none;stroke:#2196f3;stroke-width:3;stroke-linecap:round;stroke-linejoin:round;stroke-miterlimit:10;}
	.st1{fill:none;stroke:#FFFFFF;stroke-width:3;stroke-miterlimit:10;}
	.st2{fill:none;stroke:#2196f3;stroke-width:2;stroke-miterlimit:10;}
</style>
<g id="XMLID_256_">
	<g id="XMLID_265_">
		<polyline id="XMLID_329_" class="st0" points="64.8,51.4 45.4,51.4 45.4,60.4 36.4,51.4 18.3,51.4 18.3,17.3 75,17.3 75.2,33.2 		
			"/>
		<path id="XMLID_328_" class="st1" d="M75.2,33.2"/>
		<polygon id="XMLID_326_" class="st0" points="64.7,33 140.2,33 140.2,86.6 126.1,86.6 111.9,100.9 111.9,86.6 64.7,86.6 		"/>
	</g>
	<g id="XMLID_260_">
		<path id="XMLID_263_" class="st2" d="M153.7,80.6c1.1,3.8,0.8,8.1-1.3,11.9c-2.7,4.9-7.7,7.8-12.9,8.1"/>
		<path id="XMLID_262_" class="st2" d="M158.9,80.3c1.4,5,1,10.5-1.7,15.4c-3.5,6.4-10,10.1-16.8,10.5"/>
	</g>
	<g id="XMLID_257_">
		<path id="XMLID_259_" class="st2" d="M6.1,22.6c-0.9-3.2-0.6-6.9,1.1-10c2.3-4.2,6.5-6.6,11-6.8"/>
		<path id="XMLID_258_" class="st2" d="M1.7,22.9c-1.2-4.2-0.8-8.9,1.4-13c3-5.4,8.5-8.6,14.2-8.9"/>
	</g>
</g>
</svg>
