<?xml version="1.0" encoding="utf-8"?>
<!-- Generator: Adobe Illustrator 19.0.0, SVG Export Plug-In . SVG Version: 6.00 Build 0)  -->
<svg version="1.1" id="Capa_1" xmlns="http://www.w3.org/2000/svg" xmlns:xlink="http://www.w3.org/1999/xlink" x="0px" y="0px"
	 viewBox="0 0 210.4 119.5" style="enable-background:new 0 0 210.4 119.5;" xml:space="preserve">
<style type="text/css">
	.st0{fill:none;stroke:#2196f3;stroke-width:2;stroke-linecap:round;stroke-linejoin:round;stroke-miterlimit:22.9256;}
	.st1{fill:none;stroke:#2196f3;stroke-width:2;stroke-miterlimit:22.9256;}
	.st2{fill:none;stroke:#2196f3;stroke-width:2;stroke-miterlimit:22.9256;stroke-dasharray:4,4;}
	.st3{fill:none;stroke:#2196f3;stroke-width:2;stroke-miterlimit:22.9256;stroke-dasharray:6,6;}
	.st4{fill:none;stroke:#2196f3;stroke-width:2;stroke-miterlimit:10;}
</style>
<g id="XMLID_371_">
	<path id="XMLID_427_" class="st0" d="M158.3,23.4H22.4V110c66.8,0,101.8,0,135.9,0V23.4L158.3,23.4z"/>
	<path id="XMLID_389_" class="st0" d="M151.5,29.8H28.3v74.7c60.6,0,92.3,0,123.2,0V29.8L151.5,29.8z"/>
	<path id="XMLID_388_" class="st0" d="M1,118.5c61.8,0,147.1,0,178.7,0"/>
	<rect id="XMLID_387_" x="59.5" y="36.5" class="st0" width="61" height="61"/>
	<rect id="XMLID_386_" x="65" y="42.9" class="st0" width="50.4" height="33.8"/>
	<polygon id="XMLID_385_" class="st0" points="86.7,53.9 86.7,65.4 96.9,59 	"/>
	<g id="XMLID_375_">
		<path id="XMLID_384_" class="st0" d="M187.6,71.5c11.6,0,21,9.4,21,21c0,11.6-9.4,21-21,21c-11.6,0-21-9.4-21-21
			C166.6,80.9,176,71.5,187.6,71.5L187.6,71.5z"/>
		<line id="XMLID_383_" class="st0" x1="185.1" y1="71.5" x2="185.1" y2="66.8"/>
		<line id="XMLID_382_" class="st0" x1="190" y1="66.8" x2="190" y2="71.5"/>
		<polyline id="XMLID_381_" class="st0" points="201,76 206.3,70.7 209.4,73.8 204.1,79 		"/>
		<polyline id="XMLID_380_" class="st0" points="170.2,79.7 165.1,74.3 168.2,71.3 173.4,76.7 		"/>
		<path id="XMLID_379_" class="st0" d="M182.1,61.1h11c0.5,0,0.9,0.4,0.9,0.9v3.2c0,0.5-0.4,0.9-0.9,0.9h-11c-0.5,0-0.9-0.4-0.9-0.9
			v-3.2C181.1,61.5,181.5,61.1,182.1,61.1L182.1,61.1z"/>
		<path id="XMLID_376_" class="st0" d="M187.6,75.8c9.2,0,16.7,7.5,16.7,16.7c0,9.2-7.5,16.7-16.7,16.7c-9.2,0-16.7-7.5-16.7-16.7
			C170.9,83.3,178.3,75.8,187.6,75.8L187.6,75.8z"/>
	</g>
	<g id="XMLID_374_">
		<g id="XMLID_15_">
			<line id="XMLID_22_" class="st1" x1="85.7" y1="20" x2="85.7" y2="17"/>
			<line id="XMLID_21_" class="st2" x1="85.7" y1="12" x2="85.7" y2="6"/>
			<polyline id="XMLID_20_" class="st1" points="85.7,4 85.7,1 88.7,1 			"/>
			<line id="XMLID_19_" class="st3" x1="94.7" y1="1" x2="180.7" y2="1"/>
			<polyline id="XMLID_18_" class="st1" points="184.7,1 187.7,1 187.7,4 			"/>
			<line id="XMLID_17_" class="st3" x1="187.7" y1="9" x2="187.7" y2="52"/>
			<line id="XMLID_16_" class="st1" x1="187.7" y1="55" x2="187.7" y2="58"/>
		</g>
	</g>
	<line id="XMLID_373_" class="st4" x1="185.9" y1="91.4" x2="194.4" y2="99.9"/>
</g>
</svg>
