<?xml version="1.0" encoding="utf-8"?>
<!-- Generator: Adobe Illustrator 19.0.0, SVG Export Plug-In . SVG Version: 6.00 Build 0)  -->
<svg version="1.1" id="Capa_1" xmlns="http://www.w3.org/2000/svg" xmlns:xlink="http://www.w3.org/1999/xlink" x="0px" y="0px"
	 viewBox="0 0 217.8 137.2" style="enable-background:new 0 0 217.8 137.2;" xml:space="preserve">
<style type="text/css">
	.st0{fill:none;stroke:#2196f3;stroke-width:3;stroke-linecap:round;stroke-linejoin:round;stroke-miterlimit:22.9256;}
	.st1{fill:none;stroke:#2196f3;stroke-width:2;stroke-linecap:round;stroke-linejoin:round;stroke-miterlimit:22.9256;}
	.st2{fill:none;stroke:#2196f3;stroke-width:2;stroke-linejoin:round;}
	.st3{fill:none;stroke:#2196f3;stroke-width:2;stroke-linecap:round;}
	.st4{fill:none;stroke:#2196f3;stroke-width:2;}
</style>
<g id="XMLID_549_">
	<g id="XMLID_564_">
		<g id="XMLID_565_">
			<path id="XMLID_566_" class="st0" d="M143.8,135.7c11.9,0,13,0,24.5,0c26.5,0,48.1-21.5,48.1-48.1c0-26.5-21.5-48.1-48.1-48.1
				c-3.3,0-6.6,0.3-9.7,1c-8.9-22.9-31.2-39.1-57.2-39.1C67.4,1.5,39.9,29,39.9,62.9l0,0.9c-0.8,0-1.6-0.1-2.4-0.1
				c-19.9,0-36,16.1-36,36c0,19.9,16.1,36,36,36c13.9,0,17.9,0,32.9,0 M110.6,72.4"/>
		</g>
	</g>
	<g id="XMLID_557_">
		<path id="XMLID_563_" class="st1" d="M102.9,89l-40.6,0.2l0.1,25.9c20-0.1,30.4-0.2,40.6-0.2L102.9,89L102.9,89z"/>
		<path id="XMLID_562_" class="st1" d="M103.2,95.2c15.7-0.1,32.4-0.2,44.4-0.3l-0.2-37.5l-58.7,0.3l0.2,29.9"/>
		<line id="XMLID_561_" class="st1" x1="113.5" y1="105.4" x2="130.5" y2="105.3"/>
		<path id="XMLID_560_" class="st1" d="M155,85.8l13.3-0.1c1,0,1.8,0.8,1.8,1.8l0.1,23.2c0,1-0.8,1.8-1.8,1.8l-13.3,0.1
			c-1,0-1.8-0.8-1.8-1.8l-0.1-23.2C153.2,86.6,154,85.8,155,85.8L155,85.8z"/>
		<line id="XMLID_559_" class="st1" x1="122.2" y1="104" x2="122.1" y2="95.7"/>
		<line id="XMLID_558_" class="st1" x1="34.9" y1="123" x2="179.9" y2="123"/>
	</g>
	<g id="XMLID_550_">
		<path id="XMLID_556_" class="st2" d="M35.8,107.2h-3.4c-1,0-1.8-0.8-1.8-1.8v-8c0-1,0.8-1.8,1.8-1.8h3.4"/>
		<path id="XMLID_555_" class="st3" d="M35.6,91.2v18c0,1.7,1.4,3,3,3h9.7c1.7,0,3-1.4,3-3v-18H35.6z"/>
		<g id="XMLID_551_">
			<path id="XMLID_554_" class="st4" d="M47.2,82.8c-1.7,2.1,1.7,4.1,0,6.2"/>
			<path id="XMLID_553_" class="st4" d="M43.8,88.9c1.7-2.1-1.7-4.1,0-6.2"/>
			<path id="XMLID_552_" class="st4" d="M40.5,88.9c1.7-2.1-1.7-4.1,0-6.2"/>
		</g>
	</g>
</g>
</svg>
